<?xml version="1.0" encoding="UTF-8" standalone="no"?>
<!-- Created with Inkscape (http://www.inkscape.org/) -->

<svg
   width="28.519869mm"
   height="30.568865mm"
   viewBox="0 0 28.519868 30.568865"
   version="1.1"
   id="svg1"
   xml:space="preserve"
   xmlns="http://www.w3.org/2000/svg"
   xmlns:svg="http://www.w3.org/2000/svg">
   <style>
   #path1 {
	stroke: #0073aa;
   }
   #path1-1 {
	stroke: #0073aa;
   }
   #rect1-1 {
     fill: #0073aa;
	 stroke: #ffffff;
   }
   #rect-1-5-8 {
     fill: #0073aa;
	 stroke: #ffffff;
   }
   #path2 {
     fill: #0073aa;
	 stroke: #0073aa;
   }
   @media (prefers-color-scheme: dark) {
   #path1 {
	stroke: white;
   }
   #path1-1 {
	stroke: white;
   }
   #rect1-1 {
     fill: white;
	 stroke: black;
   }
   #rect-1-5-8 {
     fill: white;
	 stroke: black;
   }
   #path2 {
     fill: white;
	 stroke: white;
   }
   }
   </style>
   <defs
   id="defs1"><clipPath
     clipPathUnits="userSpaceOnUse"
     id="clipPath23"><g
       id="g24"
       style="display:none"><rect
         style="fill:none;fill-opacity:1;roke-width:1.148;stroke-dasharray:none;stroke-opacity:1"
         id="rect23"
         width="12.793524"
         height="5.4170055"
         x="146.74004"
         y="35.323177"
         rx="0.93045324"
         ry="0.93045324"
         d="m 147.67049,35.323177 h 10.93262 c 0.51547,0 0.93045,0.414982 0.93045,0.930454 v 3.556099 c 0,0.515471 -0.41498,0.930453 -0.93045,0.930453 h -10.93262 c -0.51547,0 -0.93045,-0.414982 -0.93045,-0.930453 v -3.556099 c 0,-0.515472 0.41498,-0.930454 0.93045,-0.930454 z" /><rect
         style="fill:none;fill-opacity:1;troke-width:1.148;stroke-dasharray:none;stroke-opacity:1"
         id="rect24"
         width="7.5852041"
         height="5.3121419"
         x="167.67679"
         y="53.287052"
         rx="1.0095072"
         ry="1.0095072"
         d="m 168.6863,53.287052 h 5.56619 c 0.55926,0 1.0095,0.45024 1.0095,1.009507 v 3.293128 c 0,0.559267 -0.45024,1.009507 -1.0095,1.009507 h -5.56619 c -0.55927,0 -1.00951,-0.45024 -1.00951,-1.009507 v -3.293128 c 0,-0.559267 0.45024,-1.009507 1.00951,-1.009507 z" /></g><path
       id="lpe_path-effect24"
       class="powerclip"
       d="m 124.30482,27.404996 h 57.66394 v 57.663929 h -57.66394 z m 23.36567,7.918181 c -0.51547,0 -0.93045,0.414982 -0.93045,0.930454 v 3.556099 c 0,0.515471 0.41498,0.930453 0.93045,0.930453 h 10.93262 c 0.51547,0 0.93045,-0.414982 0.93045,-0.930453 v -3.556099 c 0,-0.515472 -0.41498,-0.930454 -0.93045,-0.930454 z m 21.01581,17.963875 c -0.55927,0 -1.00951,0.45024 -1.00951,1.009507 v 3.293128 c 0,0.559267 0.45024,1.009507 1.00951,1.009507 h 5.56619 c 0.55926,0 1.0095,-0.45024 1.0095,-1.009507 v -3.293128 c 0,-0.559267 -0.45024,-1.009507 -1.0095,-1.009507 z" /></clipPath></defs><g
   id="g2"
   transform="matrix(0.59835315,0,0,0.59835315,-77.369942,-19.38963)"><path
     style="opacity:1;fill:none;fill-opacity:1;stroke-width:10.8095;stroke-dasharray:none;stroke-opacity:1"
     id="path1"
     d="M 170.37822,62.768109 A 18.437,18.437 0 0 1 146.60774,73.479202 18.437,18.437 0 0 1 135.89375,49.710025 18.437,18.437 0 0 1 159.66163,38.993148 18.437,18.437 0 0 1 170.38139,62.759716"
     clip-path="url(#clipPath23)" /><path
     style="fill:none;fill-opacity:1;stroke-width:2.548;stroke-dasharray:none;stroke-opacity:1"
     id="path1-1"
     d="m 163.30054,60.087037 a 10.868523,10.868523 0 0 1 -14.01258,6.314137 10.868523,10.868523 0 0 1 -6.31585,-14.011814 10.868523,10.868523 0 0 1 14.01105,-6.317548 10.868523,10.868523 0 0 1 6.31925,14.010277" /><rect
     style="ill-opacity:1;stroke-width:0;stroke-dasharray:none;stroke-opacity:1"
     id="rect1-1"
     width="11.181734"
     height="3.815834"
     x="147.54593"
     y="36.195992"
     rx="0.62396026"
     ry="0.62396026" /><rect
     style="fill-opacity:1;stroke-width:0;stroke-dasharray:none;stroke-opacity:1"
     id="rect1-5-8"
     width="5.9396362"
     height="3.8085742"
     x="168.52898"
     y="54.089535"
     rx="0.7905004"
     ry="0.7237727" /><path
     style="fill-opacity:1;stroke-width:0.265149;stroke-linecap:butt;stroke-linejoin:miter;stroke-dasharray:none;stroke-opacity:1"
     d="m 141.49515,76.804749 -2.30391,6.555262 27.89068,-0.110171 -2.3097,-6.472635 z"
     id="path2" /></g>
</svg>
