<?xml version="1.0" encoding="UTF-8" standalone="no"?>
<!-- Created with Inkscape (http://www.inkscape.org/) -->

<svg
   width="166.9978mm"
   height="49.235985mm"
   viewBox="0 0 166.9978 49.235985"
   version="1.1"
   id="svg1"
   inkscape:version="1.3.2 (091e20e, 2023-11-25, custom)"
   sodipodi:docname="mrpro_logo_text_n_scanner_white.svg"
   xml:space="preserve"
   inkscape:export-filename="mrpro_white_text.png"
   inkscape:export-xdpi="243"
   inkscape:export-ydpi="243"
   xmlns:inkscape="http://www.inkscape.org/namespaces/inkscape"
   xmlns:sodipodi="http://sodipodi.sourceforge.net/DTD/sodipodi-0.dtd"
   xmlns="http://www.w3.org/2000/svg"
   xmlns:svg="http://www.w3.org/2000/svg"><sodipodi:namedview
     id="namedview1"
     pagecolor="#ffffff"
     bordercolor="#999999"
     borderopacity="1"
     inkscape:showpageshadow="2"
     inkscape:pageopacity="0"
     inkscape:pagecheckerboard="0"
     inkscape:deskcolor="#d1d1d1"
     inkscape:document-units="mm"
     inkscape:zoom="1.420198"
     inkscape:cx="331.6439"
     inkscape:cy="55.273983"
     inkscape:window-width="2880"
     inkscape:window-height="1526"
     inkscape:window-x="-11"
     inkscape:window-y="-11"
     inkscape:window-maximized="1"
     inkscape:current-layer="layer1"
     inkscape:export-bgcolor="#00000000" /><defs
     id="defs1"><inkscape:path-effect
       effect="powerclip"
       id="path-effect24"
       is_visible="true"
       lpeversion="1"
       inverse="true"
       flatten="false"
       hide_clip="false"
       message="Use fill-rule evenodd on &lt;b&gt;fill and stroke&lt;/b&gt; dialog if no flatten result after convert clip to paths." /><rect
       x="233.31343"
       y="156.42305"
       width="233.31343"
       height="159.85802"
       id="rect3" /><rect
       x="233.31343"
       y="156.42305"
       width="233.31343"
       height="159.85802"
       id="rect3-7" /><filter
       id="mask-powermask-path-effect5_inverse"
       inkscape:label="filtermask-powermask-path-effect5"
       style="color-interpolation-filters:sRGB"
       height="100"
       width="100"
       x="-50"
       y="-50"><feColorMatrix
         id="mask-powermask-path-effect5_primitive1"
         values="1"
         type="saturate"
         result="fbSourceGraphic" /><feColorMatrix
         id="mask-powermask-path-effect5_primitive2"
         values="-1 0 0 0 1 0 -1 0 0 1 0 0 -1 0 1 0 0 0 1 0 "
         in="fbSourceGraphic" /></filter><filter
       id="mask-powermask-path-effect7_inverse"
       inkscape:label="filtermask-powermask-path-effect7"
       style="color-interpolation-filters:sRGB"
       height="100"
       width="100"
       x="-50"
       y="-50"><feColorMatrix
         id="mask-powermask-path-effect7_primitive1"
         values="1"
         type="saturate"
         result="fbSourceGraphic" /><feColorMatrix
         id="mask-powermask-path-effect7_primitive2"
         values="-1 0 0 0 1 0 -1 0 0 1 0 0 -1 0 1 0 0 0 1 0 "
         in="fbSourceGraphic" /></filter><filter
       id="mask-powermask-path-effect8_inverse"
       inkscape:label="filtermask-powermask-path-effect8"
       style="color-interpolation-filters:sRGB"
       height="100"
       width="100"
       x="-50"
       y="-50"><feColorMatrix
         id="mask-powermask-path-effect8_primitive1"
         values="1"
         type="saturate"
         result="fbSourceGraphic" /><feColorMatrix
         id="mask-powermask-path-effect8_primitive2"
         values="-1 0 0 0 1 0 -1 0 0 1 0 0 -1 0 1 0 0 0 1 0 "
         in="fbSourceGraphic" /></filter><filter
       id="mask-powermask-path-effect9_inverse"
       inkscape:label="filtermask-powermask-path-effect9"
       style="color-interpolation-filters:sRGB"
       height="100"
       width="100"
       x="-50"
       y="-50"><feColorMatrix
         id="mask-powermask-path-effect9_primitive1"
         values="1"
         type="saturate"
         result="fbSourceGraphic" /><feColorMatrix
         id="mask-powermask-path-effect9_primitive2"
         values="-1 0 0 0 1 0 -1 0 0 1 0 0 -1 0 1 0 0 0 1 0 "
         in="fbSourceGraphic" /></filter><clipPath
       clipPathUnits="userSpaceOnUse"
       id="clipPath23"><g
         id="g24"
         style="display:none"><rect
           style="fill:none;fill-opacity:1;stroke:#ffffff;stroke-width:1.148;stroke-dasharray:none;stroke-opacity:1"
           id="rect23"
           width="12.793524"
           height="5.4170055"
           x="146.74004"
           y="35.323177"
           rx="0.93045324"
           ry="0.93045324"
           d="m 147.67049,35.323177 h 10.93262 c 0.51547,0 0.93045,0.414982 0.93045,0.930454 v 3.556099 c 0,0.515471 -0.41498,0.930453 -0.93045,0.930453 h -10.93262 c -0.51547,0 -0.93045,-0.414982 -0.93045,-0.930453 v -3.556099 c 0,-0.515472 0.41498,-0.930454 0.93045,-0.930454 z" /><rect
           style="fill:none;fill-opacity:1;stroke:#ffffff;stroke-width:1.148;stroke-dasharray:none;stroke-opacity:1"
           id="rect24"
           width="7.5852041"
           height="5.3121419"
           x="167.67679"
           y="53.287052"
           rx="1.0095072"
           ry="1.0095072"
           d="m 168.6863,53.287052 h 5.56619 c 0.55926,0 1.0095,0.45024 1.0095,1.009507 v 3.293128 c 0,0.559267 -0.45024,1.009507 -1.0095,1.009507 h -5.56619 c -0.55927,0 -1.00951,-0.45024 -1.00951,-1.009507 v -3.293128 c 0,-0.559267 0.45024,-1.009507 1.00951,-1.009507 z" /></g><path
         id="lpe_path-effect24"
         class="powerclip"
         d="m 124.30482,27.405 h 57.66394 v 57.663921 h -57.66394 z m 23.36567,7.918177 c -0.51547,0 -0.93045,0.414982 -0.93045,0.930454 v 3.556099 c 0,0.515471 0.41498,0.930453 0.93045,0.930453 h 10.93262 c 0.51547,0 0.93045,-0.414982 0.93045,-0.930453 v -3.556099 c 0,-0.515472 -0.41498,-0.930454 -0.93045,-0.930454 z m 21.01581,17.963875 c -0.55927,0 -1.00951,0.45024 -1.00951,1.009507 v 3.293128 c 0,0.559267 0.45024,1.009507 1.00951,1.009507 h 5.56619 c 0.55926,0 1.0095,-0.45024 1.0095,-1.009507 v -3.293128 c 0,-0.559267 -0.45024,-1.009507 -1.0095,-1.009507 z" /></clipPath></defs><g
     inkscape:label="Layer 1"
     inkscape:groupmode="layer"
     id="layer1"
     transform="translate(-6.7366749,-7.6017812)"><g
       id="g2"
       transform="matrix(0.59835315,0,0,0.59835315,50.967787,-3.6118147)"
       inkscape:export-filename="mrpro_text_n_scanner_white.png"
       inkscape:export-xdpi="243"
       inkscape:export-ydpi="243"><path
         style="opacity:1;fill:none;fill-opacity:1;stroke:#ffffff;stroke-width:10.8095;stroke-dasharray:none;stroke-opacity:1"
         id="path1"
         sodipodi:type="arc"
         sodipodi:cx="153.13678"
         sodipodi:cy="56.236969"
         sodipodi:rx="18.437"
         sodipodi:ry="18.437"
         sodipodi:start="0.36210222"
         sodipodi:end="0.36161548"
         sodipodi:open="true"
         sodipodi:arc-type="arc"
         d="M 170.37822,62.768109 A 18.437,18.437 0 0 1 146.60774,73.479202 18.437,18.437 0 0 1 135.89375,49.710025 18.437,18.437 0 0 1 159.66163,38.993148 18.437,18.437 0 0 1 170.38139,62.759716"
         clip-path="url(#clipPath23)"
         inkscape:path-effect="#path-effect24" /><path
         style="fill:none;fill-opacity:1;stroke:#ffffff;stroke-width:2.548;stroke-dasharray:none;stroke-opacity:1"
         id="path1-1"
         sodipodi:type="arc"
         sodipodi:cx="153.1368"
         sodipodi:cy="56.236961"
         sodipodi:rx="10.868523"
         sodipodi:ry="10.868523"
         sodipodi:start="0.36210222"
         sodipodi:end="0.36161548"
         sodipodi:open="true"
         sodipodi:arc-type="arc"
         d="m 163.30054,60.087037 a 10.868523,10.868523 0 0 1 -14.01258,6.314137 10.868523,10.868523 0 0 1 -6.31585,-14.011814 10.868523,10.868523 0 0 1 14.01105,-6.317548 10.868523,10.868523 0 0 1 6.31925,14.010277" /><rect
         style="fill:#ffffff;fill-opacity:1;stroke:#ffffff;stroke-width:0;stroke-dasharray:none;stroke-opacity:1"
         id="rect1-1"
         width="11.181734"
         height="3.815834"
         x="147.54593"
         y="36.195992"
         rx="0.62396026"
         ry="0.62396026" /><rect
         style="fill:#ffffff;fill-opacity:1;stroke:#ffffff;stroke-width:0;stroke-dasharray:none;stroke-opacity:1"
         id="rect1-5-8"
         width="5.9396362"
         height="3.8085742"
         x="168.52898"
         y="54.089535"
         rx="0.7905004"
         ry="0.7237727" /><path
         style="fill:#ffffff;fill-opacity:1;stroke:#ffffff;stroke-width:0.265149;stroke-linecap:butt;stroke-linejoin:miter;stroke-dasharray:none;stroke-opacity:1"
         d="m 141.49515,76.804749 -2.30391,6.555262 27.89068,-0.110171 -2.3097,-6.472635 z"
         id="path2"
         sodipodi:nodetypes="ccccc" /></g><text
       xml:space="preserve"
       transform="matrix(1.2021721,0,0,1.2021721,-275.60039,-187.14717)"
       id="text3"
       style="font-style:normal;font-variant:normal;font-weight:normal;font-stretch:normal;font-size:40px;line-height:1.25;font-family:Arial;-inkscape-font-specification:Arial;white-space:pre;shape-inside:url(#rect3);display:inline;fill:#ffffff;fill-opacity:1;stroke:none"><tspan
         x="233.3125"
         y="192.45401"
         id="tspan3"><tspan
           style="font-weight:bold;-inkscape-font-specification:'Arial Bold'"
           id="tspan2">MRpr</tspan></tspan></text><rect
       style="opacity:1;fill:#ffffff;fill-opacity:1;stroke:#ffffff;stroke-width:1.89293;stroke-dasharray:none;stroke-opacity:1"
       id="rect4"
       width="62.441383"
       height="2.1728497"
       x="93.738426"
       y="48.694645"
       rx="0"
       ry="0" /><rect
       style="fill:#ffffff;fill-opacity:1;stroke:#ffffff;stroke-width:1.89293;stroke-dasharray:none;stroke-opacity:1"
       id="rect4-2"
       width="69.523415"
       height="2.2026155"
       x="9.1481409"
       y="48.738197"
       rx="0"
       ry="0" /></g></svg>
